<svg id="visual" viewBox="0 0 540 960" width="540" height="960" xmlns="http://www.w3.org/2000/svg" xmlns:xlink="http://www.w3.org/1999/xlink" version="1.1"><rect x="0" y="0" width="540" height="960" opacity="0"></rect><g fill="#A7233A"><circle r="17" cx="168" cy="422"></circle><circle r="14" cx="400" cy="536"></circle><circle r="14" cx="159" cy="617"></circle><circle r="13" cx="165" cy="37"></circle><circle r="14" cx="206" cy="691"></circle><circle r="14" cx="65" cy="234"></circle><circle r="13" cx="517" cy="621"></circle><circle r="13" cx="277" cy="412"></circle><circle r="14" cx="373" cy="627"></circle><circle r="14" cx="282" cy="872"></circle><circle r="13" cx="419" cy="264"></circle><circle r="15" cx="273" cy="340"></circle><circle r="14" cx="282" cy="468"></circle><circle r="14" cx="126" cy="260"></circle><circle r="15" cx="332" cy="605"></circle><circle r="13" cx="81" cy="745"></circle><circle r="13" cx="201" cy="916"></circle><circle r="14" cx="449" cy="369"></circle><circle r="14" cx="74" cy="525"></circle><circle r="14" cx="61" cy="936"></circle><circle r="15" cx="343" cy="149"></circle><circle r="13" cx="129" cy="872"></circle><circle r="13" cx="47" cy="198"></circle><circle r="15" cx="382" cy="698"></circle><circle r="15" cx="329" cy="429"></circle><circle r="13" cx="452" cy="555"></circle><circle r="13" cx="507" cy="431"></circle><circle r="13" cx="371" cy="127"></circle><circle r="15" cx="498" cy="118"></circle></g></svg>